# xmcd
#
# Track frame offsets:
#	150
#	18518
#	34959
#	46576
#	66752
#	80289
#	96108
#	115537
#	130252
#	143310
#	154103
#	170762
#	183550
#	194645
#	218698
#
# Disc length: 4054 seconds
#
# Revision: 0
# Processed by: cddbd v1.5.2PL0 Copyright (c) Steve Scherf et al.
# Submitted via: audiograbber 1.83.01
#
DISCID=c50fd40f
DTITLE=Daniel T. Coates - Takin' My Last Chance
DYEAR=2005
DGENRE=Country
TTITLE0=Takin' My Last Chance
TTITLE1=Grandpa's House
TTITLE2=Old Car
TTITLE3=Man's Job
TTITLE4=Stampede
TTITLE5=Bandy The Rodeo Clown
TTITLE6=When You Gonna Settle Down
TTITLE7=One I Drove A Team Of Horses
TTITLE8=Love To Dance
TTITLE9=Cheatin' Heart Attack
TTITLE10=Get Her Off My Mind
TTITLE11=Every Little Thing
TTITLE12=Good Man Just The Same
TTITLE13=Der Letzte Ami In Deutschland
TTITLE14=Daten-CD
EXTD=
EXTT0=
EXTT1=
EXTT2=
EXTT3=
EXTT4=
EXTT5=
EXTT6=
EXTT7=
EXTT8=
EXTT9=
EXTT10=
EXTT11=
EXTT12=
EXTT13=
EXTT14=
PLAYORDER=
